<?xml version="1.0" encoding="UTF-8" standalone="no"?>
<!-- Created with Inkscape (http://www.inkscape.org/) -->

<svg
   xmlns:dc="http://purl.org/dc/elements/1.1/"
   xmlns:cc="http://creativecommons.org/ns#"
   xmlns:rdf="http://www.w3.org/1999/02/22-rdf-syntax-ns#"
   xmlns:svg="http://www.w3.org/2000/svg"
   xmlns="http://www.w3.org/2000/svg"
   xmlns:sodipodi="http://sodipodi.sourceforge.net/DTD/sodipodi-0.dtd"
   xmlns:inkscape="http://www.inkscape.org/namespaces/inkscape"
   width="16"
   height="16"
   id="svg2"
   version="1.1"
   inkscape:version="0.48.4 r9939"
   inkscape:export-filename="C:\Users\olof.bjarnason.LOR\Desktop\NotesBig.png"
   inkscape:export-xdpi="1440"
   inkscape:export-ydpi="1440"
   sodipodi:docname="New document 1">
  <defs
     id="defs4" />
  <sodipodi:namedview
     id="base"
     pagecolor="#ffffff"
     bordercolor="#666666"
     borderopacity="1.0"
     inkscape:pageopacity="0.0"
     inkscape:pageshadow="2"
     inkscape:zoom="17.522964"
     inkscape:cx="6.7026331"
     inkscape:cy="4.5486894"
     inkscape:document-units="px"
     inkscape:current-layer="layer1"
     showgrid="false"
     inkscape:window-width="1600"
     inkscape:window-height="1138"
     inkscape:window-x="-8"
     inkscape:window-y="-8"
     inkscape:window-maximized="1" />
  <metadata
     id="metadata7">
    <rdf:RDF>
      <cc:Work
         rdf:about="">
        <dc:format>image/svg+xml</dc:format>
        <dc:type
           rdf:resource="http://purl.org/dc/dcmitype/StillImage" />
        <dc:title></dc:title>
      </cc:Work>
    </rdf:RDF>
  </metadata>
  <g
     inkscape:label="Layer 1"
     inkscape:groupmode="layer"
     id="layer1"
     transform="translate(0,-1036.3622)">
    <rect
       style="color:#000000;fill:#ffffff;fill-opacity:1;fill-rule:nonzero;stroke:#c8dff5;stroke-width:1;stroke-miterlimit:4;stroke-opacity:1;stroke-dasharray:none;marker:none;visibility:visible;display:inline;overflow:visible;enable-background:accumulate"
       id="rect3766"
       width="11.128254"
       height="14.095789"
       x="2.6821938"
       y="1037.4104" />
    <rect
       style="color:#000000;fill:#d27366;fill-opacity:1;fill-rule:nonzero;stroke:none;stroke-width:1;marker:none;visibility:visible;display:inline;overflow:visible;enable-background:accumulate"
       id="rect3768"
       width="2.4539227"
       height="1.1984273"
       x="11.756001"
       y="1036.8396" />
    <path
       style="fill:none;stroke:#000000;stroke-width:1px;stroke-linecap:butt;stroke-linejoin:miter;stroke-opacity:1"
       d="m 4.1088938,1039.9214 c 0.095113,-0.019 0.189092,-0.045 0.2853399,-0.057 0.056627,-0.01 0.1141359,0 0.1712039,0 0.1331586,0 0.2663172,0 0.3994758,0 0.1902265,0 0.3804531,0 0.5706797,0 0.1141359,0 0.2287406,-0.01 0.3424078,0 0.096598,0.01 0.1888242,0.047 0.2853402,0.057 0.09464,0.01 0.190808,-0.01 0.285339,0 0.07795,0.01 0.150628,0.046 0.228272,0.057 0.05649,0.01 0.114136,0 0.171204,0 0.01902,0 0.04005,-0.01 0.05707,0 0.02406,0.012 0.03301,0.045 0.05707,0.057 0.01501,0.01 0.19843,0 0.228272,0 0.190227,0 0.380453,0 0.57068,0 0.02984,0 0.213266,0.01 0.228272,0 0.02406,-0.012 0.03468,-0.042 0.05707,-0.057 0.03539,-0.024 0.07874,-0.034 0.114136,-0.057 0.02238,-0.015 0.03301,-0.045 0.05707,-0.057 0.01701,-0.01 0.04362,0.014 0.05707,0 0.01345,-0.013 -0.01345,-0.044 0,-0.057 0.01345,-0.013 0.04362,0.014 0.05707,0 0.01345,-0.013 0.01345,-0.044 0,-0.057 -0.02622,-0.026 -0.130108,0.03 -0.171204,0.057 -0.07914,0.053 -0.147616,0.1208 -0.228272,0.1713 -0.07214,0.045 -0.152182,0.076 -0.228272,0.1141 -0.07609,0.038 -0.152181,0.076 -0.228272,0.1141 -0.101454,0.051 -0.167808,0.091 -0.28534,0.1142 -0.03731,0.01 -0.07723,-0.01 -0.114136,0 -0.04127,0.01 -0.07378,0.044 -0.114136,0.057 -0.01805,0.01 -0.03805,0 -0.05707,0 -0.01902,0 -0.04362,0.014 -0.05707,0 -0.03936,-0.039 0.04221,-0.1067 0.05707,-0.1141 0.01702,-0.01 0.03805,0 0.05707,0 0.05707,0 0.114913,0.01 0.171204,0 0.05934,-0.01 0.111654,-0.049 0.171204,-0.057 0.07533,-0.011 0.152181,0 0.228272,0 0.07609,0 0.152181,0 0.228272,0 0.07609,0 0.152769,0.01 0.228272,0 0.07783,-0.01 0.151362,-0.042 0.228272,-0.057 0.05596,-0.011 0.114136,0 0.171203,0"
       id="path3770"
       inkscape:connector-curvature="0" />
    <path
       style="fill:none;stroke:#000000;stroke-width:1px;stroke-linecap:butt;stroke-linejoin:miter;stroke-opacity:1"
       d="m 4.8507774,1042.2041 c 0.1860981,-0.01 0.3349607,0.1457 0.5136118,0.1712 0.075326,0.011 0.1521812,0 0.2282718,0 0.1712039,0 0.3429121,-0.013 0.5136121,0 0.152913,0.012 0.30363,0.045 0.456543,0.057 0.09483,0.01 0.190809,-0.01 0.28534,0 0.07795,0.01 0.150319,0.048 0.228272,0.057 0.09453,0.011 0.190227,0 0.28534,0 0.09511,0 0.190227,0 0.28534,0 0.01491,0 0.313717,0.01 0.342408,0 0.323329,-0.1616 -0.08507,0.021 0.228272,-0.057 0.04126,-0.01 0.07243,-0.049 0.114136,-0.057 0.05596,-0.011 0.115244,0.011 0.171203,0 0.04171,-0.01 0.07287,-0.047 0.114136,-0.057 0.05536,-0.014 0.114136,0 0.171204,0"
       id="path3772"
       inkscape:connector-curvature="0" />
    <path
       style="fill:none;stroke:#000000;stroke-width:1px;stroke-linecap:butt;stroke-linejoin:miter;stroke-opacity:1"
       d="m 5.0790493,1044.7722 c 0.099612,0.1241 0.2301523,0.029 0.3424078,0.057 0.041266,0.01 0.07287,0.047 0.114136,0.057 0.036909,0.01 0.076091,0 0.1141359,0 0.057068,0 0.1141359,0 0.1712039,0 0.038045,0 0.076829,-0.01 0.1141362,0 0.05899,0.012 0.112845,0.043 0.171204,0.057 0.03691,0.01 0.07609,0 0.114136,0 0.114136,0 0.228271,0 0.342407,0 0.05704,0 0.236517,0.012 0.28534,0 0.05836,-0.015 0.112845,-0.043 0.171204,-0.057 0.01845,-0 0.03805,0 0.05707,0 0.03805,0 0.07609,0 0.114136,0"
       id="path3774"
       inkscape:connector-curvature="0" />
  </g>
</svg>
